<?xml version="1.0" standalone="no"?>
<!DOCTYPE svg PUBLIC "-//W3C//DTD SVG 20010904//EN"
 "http://www.w3.org/TR/2001/REC-SVG-20010904/DTD/svg10.dtd">
<svg version="1.0" xmlns="http://www.w3.org/2000/svg"
 width="218.000000pt" height="218.000000pt" viewBox="0 0 218.000000 218.000000"
 preserveAspectRatio="xMidYMid meet">
<metadata>
Created by potrace 1.14, written by Peter Selinger 2001-2017
</metadata>
<g transform="translate(0.000000,218.000000) scale(0.100000,-0.100000)"
fill="#000000" stroke="none">
<path d="M860 1930 c-112 -32 -143 -40 -458 -125 -304 -81 -308 -86 -248 -318
21 -78 41 -155 47 -172 5 -16 58 -214 118 -440 175 -656 166 -630 239 -652 35
-10 51 -9 104 8 35 10 72 20 83 21 11 2 26 7 33 11 6 5 12 6 12 4 0 -2 69 15
153 38 l152 42 70 -19 c39 -10 77 -20 85 -22 46 -12 250 -67 280 -76 19 -5 56
-10 82 -10 69 0 107 40 132 140 10 41 47 181 82 310 36 129 66 244 69 255 2
11 16 63 30 115 14 52 27 102 30 110 2 8 18 67 35 130 17 63 33 122 35 130 2
8 15 59 30 114 17 64 25 110 21 131 -10 50 -58 90 -129 109 -58 15 -132 34
-392 105 -373 100 -362 98 -412 66 -13 -9 -27 -23 -30 -31 -4 -11 -13 -7 -39
16 -19 16 -42 30 -52 30 -9 0 -26 2 -37 5 -11 2 -67 -9 -125 -25z"/>
</g>
</svg>
